#!OML:ASF X:\für Bonn\!DataBase\2005_08_10_Bjorn_Final\c3d\bjorn.ASF
:FULLY-SPECIFIED
:DEGREES
31
root 0.141732 19.3986 4.08199 -172.392 -2.04552 175.876
lowerback -7.69067 1.27178 -1.9814
upperback 9.9659 1.4242 -0.964133
thorax 15.3675 0.216935 0.243236
lowerneck -1.20591 -3.93408 0.528579
upperneck 17.4577 -6.88737 1.5742
head 5.50334 -3.65018 0.0130835
rclavicle -2.45499e-014 1.86858e-014
rhumerus -1026.65 -9.51523 999.315
rradius 12.3297
rwrist 38.3563
rhand -23.2784 13.8361
rfingers 7.12502
rthumb 3.17421 -16.12
lclavicle -2.45499e-014 1.86858e-014
lhumerus 61.7381 -4.46621 77.9192
lradius 13.0395
lwrist -48.0289
lhand -24.7216 0.601935
lfingers 7.12502
lthumb 1.78046 30.5743
rfemur -20.6551 -12.7405 11.3647
rtibia 29.4416
rfoot -13.2443 9.01439
rtoes -17.2404
lfemur -19.1498 7.73953 -21.8611
ltibia 26.2373
lfoot -6.8525 -14.4161
ltoes 0.795719
32
root 0.145094 19.3931 4.03604 -172.682 -2.08025 175.888
lowerback -8.015 1.26659 -1.9979
upperback 9.78536 1.47389 -1.02669
thorax 15.3576 0.259273 0.201991
lowerneck -0.928436 -3.9138 0.659569
upperneck 17.9551 -6.97627 1.53162
head 5.60755 -3.71781 -0.0296393
rclavicle 5.36719e-015 -9.34288e-015
rhumerus -1025.67 -7.94138 1003.01
rradius 13.2085
rwrist 37.0493
rhand -23.1384 13.5494
rfingers 7.12502
rthumb 3.30943 -16.4047
lclavicle 5.36719e-015 -9.34288e-015
lhumerus 63.4513 -4.9741 74.6111
lradius 13.6345
lwrist -47.0975
lhand -24.3928 1.30503
lfingers 7.12502
lthumb 2.09797 31.2745
rfemur -20.1469 -12.6786 11.2889
rtibia 29.4489
rfoot -13.4346 9.02448
rtoes -17.4329
lfemur -18.672 7.58909 -21.7545
ltibia 26.2638
lfoot -7.0852 -14.3122
ltoes 0.505414
33
root 0.14832 19.3889 3.98877 -172.962 -2.12085 175.872
lowerback -8.32875 1.25036 -2.03063
upperback 9.57115 1.51659 -1.11731
thorax 15.3005 0.300472 0.137624
lowerneck -0.580786 -3.89255 0.841104
upperneck 18.4649 -7.07988 1.48941
head 5.70281 -3.79414 -0.0799203
rclavicle 4.77083e-015 5.96354e-016
rhumerus -1024.72 -6.70873 1006.47
rradius 14.0648
rwrist 35.8157
rhand -22.8819 13.2466
rfingers 7.12502
rthumb 3.55711 -16.7035
lclavicle 4.77083e-015 5.96354e-016
lhumerus 65.0564 -4.96143 72.0503
lradius 14.0908
lwrist -47.0342
lhand -24.2338 1.57534
lfingers 7.12502
lthumb 2.25152 31.5432
rfemur -19.6425 -12.5305 11.1738
rtibia 29.4531
rfoot -13.6227 8.98504
rtoes -17.2622
lfemur -18.1918 7.43683 -21.6799
ltibia 26.2923
lfoot -7.33427 -14.2149
ltoes 0.196219
34
root 0.151349 19.3834 3.93949 -173.255 -2.1482 175.877
lowerback -8.61393 1.24102 -2.04896
upperback 9.3114 1.5676 -1.19121
thorax 15.1694 0.348943 0.0864653
lowerneck 0.058669 -3.88101 0.969495
upperneck 18.7945 -7.1927 1.49522
head 5.69586 -3.8828 -0.094698
rclavicle -1.83876e-015 1.19271e-015
rhumerus -1023.93 -5.60685 1010.12
rradius 14.9546
rwrist 34.5191
rhand -22.1555 12.7494
rfingers 7.12502
rthumb 4.2586 -17.1878
lclavicle -1.83876e-015 1.19271e-015
lhumerus 66.5006 -4.8081 69.7123
lradius 14.5238
lwrist -47.0727
lhand -24.1815 1.8026
lfingers 7.12502
lthumb 2.30211 31.7699
rfemur -19.1317 -12.4785 11.0921
rtibia 29.4666
rfoot -13.8036 9.00235
rtoes -17.4614
lfemur -17.701 7.25474 -21.5749
ltibia 26.33
lfoot -7.55853 -14.0683
ltoes 0.106677
35
root 0.154378 19.379 3.88836 -173.499 -2.16989 175.894
lowerback -8.94576 1.21479 -2.07829
upperback 9.02781 1.5994 -1.25535
thorax 15.0397 0.38757 0.0494739
lowerneck 0.717875 -3.87861 1.13997
upperneck 19.1487 -7.31226 1.39948
head 5.68859 -3.98161 -0.147791
rclavicle 1.3418e-014 -5.06901e-015
rhumerus -1023.22 -4.54206 1013.96
rradius 15.866
rwrist 32.9051
rhand -21.6341 12.3079
rfingers 7.12502
rthumb 4.76212 -17.6186
lclavicle 1.3418e-014 -5.06901e-015
lhumerus 67.8518 -4.56651 67.057
lradius 14.948
lwrist -46.6503
lhand -24.0411 1.98103
lfingers 7.12502
lthumb 2.43764 31.9469
rfemur -18.6663 -12.3309 11.0208
rtibia 29.4861
rfoot -14.0199 8.96211
rtoes -17.5466
lfemur -17.2603 7.03083 -21.4723
ltibia 26.3752
lfoot -7.82168 -13.8803
ltoes -0.246546
36
root 0.15757 19.3723 3.83633 -173.724 -2.20594 175.898
lowerback -9.28501 1.18709 -2.09218
upperback 8.72803 1.6296 -1.35317
thorax 14.8976 0.429215 -0.0339011
lowerneck 1.3581 -3.87042 1.37069
upperneck 19.5292 -7.43674 1.31676
head 5.69198 -4.07996 -0.207886
rclavicle 2.09221e-014 -3.33958e-014
rhumerus -1022.57 -3.7715 1017.56
rradius 16.8099
rwrist 31.2855
rhand -21.2085 12.0094
rfingers 7.12502
rthumb 5.17302 -17.9075
lclavicle 2.09221e-014 -3.33958e-014
lhumerus 69.112 -4.46813 63.383
lradius 15.4611
lwrist -44.9933
lhand -23.9345 2.17443
lfingers 7.12502
lthumb 2.54065 32.139
rfemur -18.2226 -12.2531 10.9456
rtibia 29.5207
rfoot -14.2026 9.00077
rtoes -17.5387
lfemur -16.8473 6.85598 -21.3824
ltibia 26.43
lfoot -8.03565 -13.7763
ltoes -0.244949
37
root 0.161557 19.3665 3.78358 -173.931 -2.22812 175.899
lowerback -9.59814 1.15917 -2.14075
upperback 8.39267 1.66168 -1.42623
thorax 14.6948 0.467697 -0.0695172
lowerneck 2.06502 -3.86623 1.55052
upperneck 19.8647 -7.56302 1.23586
head 5.67223 -4.18524 -0.255703
rclavicle -4.37326e-015 -1.68967e-014
rhumerus -1021.91 -3.54448 1020.41
rradius 17.6476
rwrist 30.7815
rhand -20.809 12.1064
rfingers 7.12502
rthumb 5.55878 -17.8007
lclavicle -4.37326e-015 -1.68967e-014
lhumerus 70.2679 -4.16557 59.908
lradius 15.9191
lwrist -43.4148
lhand -23.8509 2.40082
lfingers 7.12502
lthumb 2.62133 32.3645
rfemur -17.8121 -12.2086 10.8832
rtibia 29.5613
rfoot -14.3973 9.02388
rtoes -17.6308
lfemur -16.4553 6.72671 -21.304
ltibia 26.5006
lfoot -8.29054 -13.6853
ltoes -0.512239
38
root 0.165162 19.3597 3.73037 -174.098 -2.26178 175.925
lowerback -9.93149 1.11997 -2.16835
upperback 8.05516 1.67199 -1.49068
thorax 14.5039 0.496534 -0.111969
lowerneck 2.64009 -3.85246 1.75905
upperneck 20.2834 -7.67794 1.10132
head 5.69821 -4.28486 -0.330417
rclavicle -4.8578e-015 7.15625e-015
rhumerus -1021.3 -3.41238 1023.38
rradius 18.4866
rwrist 30.3567
rhand -20.6214 12.2267
rfingers 7.12502
rthumb 5.73992 -17.6756
lclavicle -4.8578e-015 7.15625e-015
lhumerus 71.3272 -3.45843 57.5075
lradius 16.3173
lwrist -42.877
lhand -23.18 2.29265
lfingers 7.12502
lthumb 3.26928 32.2473
rfemur -17.4483 -12.1485 10.8485
rtibia 29.618
rfoot -14.5968 9.04748
rtoes -17.8164
lfemur -16.1104 6.50954 -21.199
ltibia 26.5752
lfoot -8.52121 -13.5421
ltoes -0.606034
39
root 0.16748 19.3533 3.67349 -174.22 -2.21796 175.909
lowerback -10.303 1.10824 -2.20042
upperback 7.68469 1.72521 -1.59543
thorax 14.2998 0.547547 -0.186481
lowerneck 3.16635 -3.83314 1.95924
upperneck 20.7913 -7.82027 1.03579
head 5.76462 -4.39768 -0.387731
rclavicle 3.34828e-015 -9.88954e-015
rhumerus -1020.8 -3.41559 1026.38
rradius 19.2033
rwrist 29.9907
rhand -20.8667 12.6405
rfingers 7.12502
rthumb 5.50309 -17.268
lclavicle 3.34828e-015 -9.88954e-015
lhumerus 72.28 -2.57962 55.7647
lradius 16.6276
lwrist -43.1209
lhand -22.3243 1.9911
lfingers 7.12502
lthumb 4.09558 31.9315
rfemur -17.1437 -12.0941 10.7695
rtibia 29.6764
rfoot -14.7747 9.16934
rtoes -17.7112
lfemur -15.8019 6.35295 -21.1573
ltibia 26.6551
lfoot -8.78767 -13.3616
ltoes -0.72635
40
root 0.170975 19.3478 3.61528 -174.346 -2.18396 175.933
lowerback -10.6716 1.08621 -2.23653
upperback 7.31499 1.75674 -1.65881
thorax 14.0944 0.584091 -0.217707
lowerneck 3.78351 -3.79919 2.09564
upperneck 21.2341 -7.94676 1.0144
head 5.80012 -4.50821 -0.415632
rclavicle -6.47293e-015 -6.21202e-016
rhumerus -1020.38 -3.53067 1029.39
rradius 19.8638
rwrist 29.8279
rhand -21.4572 13.2305
rfingers 7.12502
rthumb 4.9329 -16.6921
lclavicle -6.47293e-015 -6.21202e-016
lhumerus 73.0588 -1.65174 53.697
lradius 16.9642
lwrist -43.6198
lhand -21.4044 1.896
lfingers 7.12502
lthumb 4.98392 31.8174
rfemur -16.8432 -12.0501 10.7422
rtibia 29.7441
rfoot -14.9315 9.26133
rtoes -17.7203
lfemur -15.4842 6.1679 -21.0649
ltibia 26.7299
lfoot -9.0453 -13.1861
ltoes -0.868246
